Amatic-Bold.ufo
<glyph name="dollar" format="1">
  <advance width="494"/>
  <unicode hex="0024"/>
  <outline>
    <contour>
      <point x="43" y="1286" type="curve" smooth="yes"/>
      <point x="43" y="1112"/>
      <point x="117" y="1018"/>
      <point x="183" y="869" type="curve" smooth="yes"/>
      <point x="225" y="773"/>
      <point x="233" y="372"/>
      <point x="234" y="247" type="curve"/>
      <point x="223" y="246"/>
      <point x="211" y="243"/>
      <point x="200" y="243" type="curve" smooth="yes"/>
      <point x="189" y="243"/>
      <point x="175" y="248"/>
      <point x="164" y="250" type="curve"/>
      <point x="159" y="281"/>
      <point x="134" y="324"/>
      <point x="99" y="324" type="curve" smooth="yes"/>
      <point x="76" y="324"/>
      <point x="57" y="304"/>
      <point x="57" y="281" type="curve" smooth="yes"/>
      <point x="57" y="226"/>
      <point x="103" y="184"/>
      <point x="147" y="159" type="curve"/>
      <point x="177" y="162"/>
      <point x="208" y="163"/>
      <point x="238" y="163" type="curve"/>
      <point x="238" y="61" type="line"/>
      <point x="232" y="57" type="line"/>
      <point x="232" y="45" type="line" smooth="yes"/>
      <point x="232" y="18"/>
      <point x="240" y="-18"/>
      <point x="274" y="-18" type="curve" smooth="yes"/>
      <point x="321" y="-18"/>
      <point x="333" y="32"/>
      <point x="333" y="85" type="curve" smooth="yes"/>
      <point x="333" y="126"/>
      <point x="326" y="168"/>
      <point x="324" y="190" type="curve"/>
      <point x="365" y="219"/>
      <point x="467" y="371"/>
      <point x="467" y="421" type="curve" smooth="yes"/>
      <point x="467" y="633"/>
      <point x="282" y="779"/>
      <point x="255" y="983" type="curve"/>
      <point x="282" y="957" type="line"/>
      <point x="282" y="1012" type="line"/>
      <point x="256" y="1037" type="line"/>
      <point x="249" y="1037" type="line"/>
      <point x="240" y="1122"/>
      <point x="229" y="1207"/>
      <point x="229" y="1293" type="curve" smooth="yes"/>
      <point x="229" y="1342"/>
      <point x="233" y="1390"/>
      <point x="233" y="1439" type="curve"/>
      <point x="273" y="1409"/>
      <point x="273" y="1350"/>
      <point x="336" y="1350" type="curve" smooth="yes"/>
      <point x="363" y="1350"/>
      <point x="384" y="1373"/>
      <point x="384" y="1399" type="curve" smooth="yes"/>
      <point x="384" y="1436"/>
      <point x="327" y="1484"/>
      <point x="303" y="1510" type="curve"/>
      <point x="295" y="1508"/>
      <point x="280" y="1502"/>
      <point x="273" y="1502" type="curve" smooth="yes"/>
      <point x="232" y="1502"/>
      <point x="220" y="1540"/>
      <point x="220" y="1577" type="curve" smooth="yes"/>
      <point x="220" y="1595"/>
      <point x="223" y="1613"/>
      <point x="226" y="1626" type="curve"/>
      <point x="195" y="1660" type="line"/>
      <point x="185" y="1660" type="line" smooth="yes"/>
      <point x="143" y="1660"/>
      <point x="134" y="1623"/>
      <point x="134" y="1585" type="curve" smooth="yes"/>
      <point x="134" y="1560"/>
      <point x="138" y="1535"/>
      <point x="140" y="1519" type="curve"/>
      <point x="64" y="1491"/>
      <point x="43" y="1356"/>
    </contour>
    <contour>
      <point x="369" y="385" type="curve" smooth="yes"/>
      <point x="369" y="344"/>
      <point x="347" y="304"/>
      <point x="318" y="276" type="curve"/>
      <point x="315" y="409"/>
      <point x="300" y="542"/>
      <point x="294" y="675" type="curve"/>
      <point x="322" y="607"/>
      <point x="369" y="456"/>
    </contour>
    <contour>
      <point x="167" y="1118" type="line"/>
      <point x="150" y="1172"/>
      <point x="138" y="1229"/>
      <point x="138" y="1286" type="curve" smooth="yes"/>
      <point x="138" y="1310"/>
      <point x="142" y="1335"/>
      <point x="145" y="1359" type="curve"/>
      <point x="150" y="1287"/>
      <point x="168" y="1217"/>
      <point x="168" y="1145" type="curve"/>
    </contour>
  </outline>
</glyph>
<glyph name="period" format="1">
  <advance width="295"/>
  <unicode hex="002E"/>
  <outline>
    <contour>
      <point x="74" y="41" type="curve" smooth="yes"/>
      <point x="74" y="4"/>
      <point x="105" y="-32"/>
      <point x="143" y="-32" type="curve" smooth="yes"/>
      <point x="188" y="-32"/>
      <point x="224" y="-4"/>
      <point x="224" y="43" type="curve" smooth="yes"/>
      <point x="224" y="81"/>
      <point x="190" y="120"/>
      <point x="151" y="120" type="curve" smooth="yes"/>
      <point x="110" y="120"/>
      <point x="74" y="82"/>
    </contour>
  </outline>
</glyph>
<glyph name="one" format="1">
  <advance width="559"/>
  <unicode hex="0031"/>
  <outline>
    <contour>
      <point x="442" y="102" type="line"/>
      <point x="417" y="102"/>
      <point x="391" y="98"/>
      <point x="366" y="96" type="curve"/>
      <point x="367" y="109" type="line"/>
      <point x="367" y="433"/>
      <point x="322" y="756"/>
      <point x="322" y="1079" type="curve" smooth="yes"/>
      <point x="322" y="1205"/>
      <point x="291" y="1329"/>
      <point x="291" y="1455" type="curve" smooth="yes"/>
      <point x="291" y="1484"/>
      <point x="297" y="1513"/>
      <point x="303" y="1541" type="curve"/>
      <point x="288" y="1541" type="line"/>
      <point x="270" y="1574"/>
      <point x="231" y="1575"/>
      <point x="198" y="1575" type="curve" smooth="yes"/>
      <point x="155" y="1575"/>
      <point x="33" y="1574"/>
      <point x="33" y="1521" type="curve" smooth="yes"/>
      <point x="33" y="1483"/>
      <point x="61" y="1477"/>
      <point x="91" y="1477" type="curve" smooth="yes"/>
      <point x="108" y="1477"/>
      <point x="125" y="1479"/>
      <point x="138" y="1479" type="curve" smooth="yes"/>
      <point x="198" y="1479"/>
      <point x="209" y="1432"/>
      <point x="209" y="1383" type="curve" smooth="yes"/>
      <point x="209" y="1356"/>
      <point x="206" y="1329"/>
      <point x="206" y="1308" type="curve" smooth="yes"/>
      <point x="206" y="1179"/>
      <point x="224" y="1052"/>
      <point x="233" y="924" type="curve" smooth="yes"/>
      <point x="252" y="656"/>
      <point x="268" y="388"/>
      <point x="268" y="120" type="curve" smooth="yes"/>
      <point x="268" y="93"/>
      <point x="247" y="86"/>
      <point x="223" y="86" type="curve" smooth="yes"/>
      <point x="204" y="86"/>
      <point x="183" y="90"/>
      <point x="170" y="91" type="curve"/>
      <point x="151" y="53" type="line"/>
      <point x="151" y="47" type="line" smooth="yes"/>
      <point x="151" y="-3"/>
      <point x="193" y="-9"/>
      <point x="234" y="-9" type="curve" smooth="yes"/>
      <point x="257" y="-9"/>
      <point x="265" y="-8"/>
      <point x="295" y="-8" type="curve" smooth="yes"/>
      <point x="366" y="-8"/>
      <point x="528" y="-4"/>
      <point x="528" y="52" type="curve" smooth="yes"/>
      <point x="528" y="99"/>
      <point x="477" y="103"/>
      <point x="441" y="103" type="curve"/>
    </contour>
  </outline>
</glyph>
<glyph name="two" format="1">
  <advance width="529"/>
  <unicode hex="0032"/>
  <outline>
    <contour>
      <point x="254" y="1586" type="line"/>
      <point x="162" y="1586"/>
      <point x="122" y="1465"/>
      <point x="122" y="1390" type="curve" smooth="yes"/>
      <point x="122" y="1357"/>
      <point x="134" y="1327"/>
      <point x="172" y="1327" type="curve" smooth="yes"/>
      <point x="248" y="1327"/>
      <point x="222" y="1470"/>
      <point x="278" y="1500" type="curve"/>
      <point x="372" y="1492"/>
      <point x="376" y="1305"/>
      <point x="376" y="1236" type="curve" smooth="yes"/>
      <point x="376" y="886"/>
      <point x="287" y="614"/>
      <point x="145" y="299" type="curve" smooth="yes"/>
      <point x="108" y="218"/>
      <point x="90" y="125"/>
      <point x="32" y="55" type="curve"/>
      <point x="32" y="47" type="line" smooth="yes"/>
      <point x="32" y="7"/>
      <point x="71" y="-15"/>
      <point x="107" y="-15" type="curve" smooth="yes"/>
      <point x="211" y="-15"/>
      <point x="315" y="4"/>
      <point x="419" y="4" type="curve"/>
      <point x="455" y="55" type="line"/>
      <point x="403" y="107" type="line"/>
      <point x="393" y="107" type="line" smooth="yes"/>
      <point x="315" y="107"/>
      <point x="238" y="99"/>
      <point x="161" y="86" type="curve"/>
      <point x="200" y="204"/>
      <point x="266" y="309"/>
      <point x="316" y="422" type="curve" smooth="yes"/>
      <point x="410" y="633"/>
      <point x="474" y="970"/>
      <point x="474" y="1201" type="curve" smooth="yes"/>
      <point x="474" y="1357"/>
      <point x="473" y="1587"/>
      <point x="254" y="1587" type="curve"/>
    </contour>
  </outline>
</glyph>
<glyph name="three" format="1">
  <advance width="545"/>
  <unicode hex="0033"/>
  <outline>
    <contour>
      <point x="28" y="1416" type="line"/>
      <point x="33" y="1387"/>
      <point x="55" y="1360"/>
      <point x="87" y="1360" type="curve" smooth="yes"/>
      <point x="170" y="1360"/>
      <point x="146" y="1477"/>
      <point x="222" y="1477" type="curve" smooth="yes"/>
      <point x="315" y="1477"/>
      <point x="329" y="1216"/>
      <point x="329" y="1150" type="curve" smooth="yes"/>
      <point x="329" y="1016"/>
      <point x="199" y="950"/>
      <point x="198" y="889" type="curve"/>
      <point x="209" y="878" type="line"/>
      <point x="209" y="865" type="line"/>
      <point x="227" y="857"/>
      <point x="249" y="848"/>
      <point x="269" y="848" type="curve" smooth="yes"/>
      <point x="274" y="848"/>
      <point x="278" y="848"/>
      <point x="282" y="849" type="curve"/>
      <point x="405" y="694"/>
      <point x="407" y="482"/>
      <point x="407" y="294" type="curve" smooth="yes"/>
      <point x="407" y="207"/>
      <point x="397" y="69"/>
      <point x="282" y="64" type="curve"/>
      <point x="249" y="88"/>
      <point x="223" y="104"/>
      <point x="181" y="110" type="curve"/>
      <point x="147" y="89" type="line"/>
      <point x="147" y="76" type="line" smooth="yes"/>
      <point x="147" y="5"/>
      <point x="241" y="-20"/>
      <point x="298" y="-20" type="curve" smooth="yes"/>
      <point x="497" y="-20"/>
      <point x="510" y="213"/>
      <point x="510" y="361" type="curve" smooth="yes"/>
      <point x="510" y="509"/>
      <point x="477" y="844"/>
      <point x="339" y="927" type="curve"/>
      <point x="382" y="993"/>
      <point x="431" y="1040"/>
      <point x="431" y="1124" type="curve" smooth="yes"/>
      <point x="431" y="1184"/>
      <point x="401" y="1521"/>
      <point x="332" y="1522" type="curve"/>
      <point x="305" y="1551"/>
      <point x="267" y="1573"/>
      <point x="226" y="1573" type="curve" smooth="yes"/>
      <point x="129" y="1573"/>
      <point x="60" y="1501"/>
      <point x="26" y="1416" type="curve"/>
    </contour>
  </outline>
</glyph>
<glyph name="eight" format="1">
  <advance width="481"/>
  <unicode hex="0038"/>
  <outline>
    <contour>
      <point x="188" y="1516" type="line"/>
      <point x="210" y="1518" type="line"/>
      <point x="245" y="1518"/>
      <point x="261" y="1342"/>
      <point x="261" y="1312" type="curve" smooth="yes"/>
      <point x="261" y="1209"/>
      <point x="244" y="1106"/>
      <point x="216" y="1007" type="curve"/>
      <point x="185" y="1101"/>
      <point x="139" y="1317"/>
      <point x="139" y="1413" type="curve" smooth="yes"/>
      <point x="139" y="1449"/>
      <point x="142" y="1488"/>
      <point x="167" y="1516" type="curve"/>
      <point x="187" y="1515" type="line"/>
    </contour>
    <contour>
      <point x="180" y="190" type="line"/>
      <point x="180" y="345"/>
      <point x="192" y="604"/>
      <point x="237" y="750" type="curve"/>
      <point x="294" y="552"/>
      <point x="348" y="348"/>
      <point x="348" y="140" type="curve" smooth="yes"/>
      <point x="348" y="74"/>
      <point x="326" y="6"/>
      <point x="248" y="6" type="curve" smooth="yes"/>
      <point x="221" y="6"/>
      <point x="207" y="50"/>
      <point x="205" y="71" type="curve"/>
      <point x="208" y="81" type="line"/>
      <point x="192" y="115"/>
      <point x="179" y="151"/>
      <point x="179" y="188" type="curve"/>
    </contour>
    <contour>
      <point x="441" y="61" type="line"/>
      <point x="436" y="72" type="line"/>
      <point x="440" y="87"/>
      <point x="442" y="103"/>
      <point x="442" y="119" type="curve" smooth="yes"/>
      <point x="442" y="349"/>
      <point x="371" y="651"/>
      <point x="280" y="862" type="curve"/>
      <point x="314" y="1010"/>
      <point x="352" y="1160"/>
      <point x="352" y="1313" type="curve" smooth="yes"/>
      <point x="352" y="1466"/>
      <point x="349" y="1530"/>
      <point x="224" y="1607" type="curve"/>
      <point x="181" y="1607" type="line" smooth="yes"/>
      <point x="78" y="1607"/>
      <point x="39" y="1510"/>
      <point x="39" y="1421" type="curve" smooth="yes"/>
      <point x="39" y="1225"/>
      <point x="180" y="1040"/>
      <point x="180" y="863" type="curve" smooth="yes"/>
      <point x="180" y="827"/>
      <point x="160" y="793"/>
      <point x="150" y="759" type="curve" smooth="yes"/>
      <point x="96" y="580"/>
      <point x="84" y="384"/>
      <point x="84" y="198" type="curve" smooth="yes"/>
      <point x="84" y="98"/>
      <point x="116" y="-82"/>
      <point x="246" y="-82" type="curve" smooth="yes"/>
      <point x="342" y="-82"/>
      <point x="403" y="-24"/>
      <point x="440" y="60" type="curve" smooth="yes"/>
    </contour>
  </outline>
</glyph>
<glyph name="A" format="1">
  <advance width="656"/>
  <unicode hex="0041"/>
  <outline>
    <contour>
      <point x="462" y="445" type="curve"/>
      <point x="459" y="447" type="line"/>
      <point x="447" y="444"/>
      <point x="433" y="441"/>
      <point x="420" y="441" type="curve" smooth="yes"/>
      <point x="359" y="441"/>
      <point x="297" y="448"/>
      <point x="238" y="464" type="curve"/>
      <point x="241" y="531"/>
      <point x="268" y="594"/>
      <point x="285" y="659" type="curve" smooth="yes"/>
      <point x="304" y="736"/>
      <point x="378" y="1236"/>
      <point x="395" y="1254" type="curve"/>
      <point x="394" y="1249"/>
      <point x="394" y="1243"/>
      <point x="394" y="1236" type="curve" smooth="yes"/>
      <point x="394" y="1109"/>
      <point x="452" y="570"/>
    </contour>
    <contour>
      <point x="560" y="794" type="line"/>
      <point x="483" y="958"/>
      <point x="558" y="1364"/>
      <point x="472" y="1521" type="curve" smooth="yes"/>
      <point x="467" y="1529" type="line"/>
      <point x="467" y="1525" type="line"/>
      <point x="449" y="1539"/>
      <point x="428" y="1543"/>
      <point x="406" y="1543" type="curve" smooth="yes"/>
      <point x="339" y="1543"/>
      <point x="298" y="1332"/>
      <point x="287" y="1279" type="curve" smooth="yes"/>
      <point x="246" y="1090"/>
      <point x="93" y="149"/>
      <point x="34" y="64" type="curve"/>
      <point x="43" y="26"/>
      <point x="92" y="23"/>
      <point x="124" y="23" type="curve" smooth="yes"/>
      <point x="143" y="23" type="line"/>
      <point x="201" y="117"/>
      <point x="174" y="286"/>
      <point x="225" y="373" type="curve"/>
      <point x="281" y="369"/>
      <point x="420" y="351"/>
      <point x="464" y="321" type="curve"/>
      <point x="461" y="180" type="line" smooth="yes"/>
      <point x="461" y="170"/>
      <point x="461" y="161"/>
      <point x="461" y="151" type="curve" smooth="yes"/>
      <point x="461" y="121"/>
      <point x="462" y="91"/>
      <point x="471" y="64" type="curve"/>
      <point x="464" y="54" type="line"/>
      <point x="464" y="13"/>
      <point x="487" y="1"/>
      <point x="527" y="1" type="curve" smooth="yes"/>
      <point x="574" y="1"/>
      <point x="595" y="24"/>
      <point x="595" y="70" type="curve" smooth="yes"/>
      <point x="595" y="251"/>
      <point x="573" y="430"/>
      <point x="573" y="611" type="curve"/>
      <point x="557" y="635"/>
      <point x="552" y="672"/>
      <point x="552" y="710" type="curve" smooth="yes"/>
      <point x="552" y="741"/>
      <point x="555" y="771"/>
      <point x="559" y="793" type="curve"/>
    </contour>
  </outline>
</glyph>
<glyph name="B" format="1">
  <advance width="576"/>
  <unicode hex="0042"/>
  <outline>
    <contour>
      <point x="527" y="374" type="curve"/>
      <point x="525" y="380"/>
      <point x="521" y="388"/>
      <point x="520" y="394" type="curve" smooth="yes"/>
      <point x="476" y="742"/>
      <point x="545" y="569"/>
      <point x="335" y="869" type="curve"/>
      <point x="405" y="966"/>
      <point x="461" y="1079"/>
      <point x="461" y="1201" type="curve" smooth="yes"/>
      <point x="461" y="1392"/>
      <point x="351" y="1537"/>
      <point x="151" y="1537" type="curve" smooth="yes"/>
      <point x="71" y="1537"/>
      <point x="74" y="1425"/>
      <point x="74" y="1370" type="curve" smooth="yes"/>
      <point x="74" y="1093"/>
      <point x="88" y="815"/>
      <point x="88" y="538" type="curve" smooth="yes"/>
      <point x="88" y="370"/>
      <point x="78" y="202"/>
      <point x="78" y="34" type="curve" smooth="yes"/>
      <point x="78" y="-19"/>
      <point x="146" y="-17"/>
      <point x="182" y="-17" type="curve" smooth="yes"/>
      <point x="199" y="-17"/>
      <point x="249" y="-4"/>
      <point x="265" y="3" type="curve" smooth="yes"/>
      <point x="477" y="94"/>
      <point x="476" y="172"/>
    </contour>
    <contour>
      <point x="265" y="785" type="line"/>
      <point x="407" y="721"/>
      <point x="421" y="503"/>
      <point x="421" y="369" type="curve" smooth="yes"/>
      <point x="421" y="232"/>
      <point x="343" y="112"/>
      <point x="202" y="90" type="curve"/>
      <point x="202" y="316"/>
      <point x="200" y="543"/>
      <point x="192" y="769" type="curve"/>
      <point x="265" y="786" type="line"/>
    </contour>
    <contour>
      <point x="214" y="1421" type="curve" smooth="yes"/>
      <point x="296" y="1421"/>
      <point x="361" y="1321"/>
      <point x="361" y="1246" type="curve" smooth="yes"/>
      <point x="361" y="1173" type="line"/>
      <point x="330" y="1095"/>
      <point x="286" y="909"/>
      <point x="193" y="888" type="curve"/>
      <point x="192" y="1044"/>
      <point x="185" y="1201"/>
      <point x="185" y="1357" type="curve" smooth="yes"/>
      <point x="185" y="1376"/>
      <point x="185" y="1421"/>
    </contour>
  </outline>
</glyph>
<glyph name="D" format="1">
  <advance width="653"/>
  <unicode hex="0044"/>
  <outline>
    <contour>
      <point x="601" y="773" type="curve"/>
      <point x="593" y="785" type="line"/>
      <point x="600" y="801" type="line"/>
      <point x="592" y="815" type="line"/>
      <point x="596" y="868" type="line"/>
      <point x="568" y="929"/>
      <point x="584" y="1168"/>
      <point x="536" y="1290" type="curve" smooth="yes"/>
      <point x="493" y="1399"/>
      <point x="349" y="1552"/>
      <point x="224" y="1552" type="curve" smooth="yes"/>
      <point x="214" y="1552" type="line" smooth="yes"/>
      <point x="163" y="1552"/>
      <point x="36" y="1557"/>
      <point x="36" y="1481" type="curve" smooth="yes"/>
      <point x="36" y="1443"/>
      <point x="57" y="1410"/>
      <point x="65" y="1374" type="curve" smooth="yes"/>
      <point x="77" y="1319"/>
      <point x="81" y="1263"/>
      <point x="81" y="1206" type="curve" smooth="yes"/>
      <point x="81" y="1131"/>
      <point x="75" y="1055"/>
      <point x="75" y="982" type="curve" smooth="yes"/>
      <point x="75" y="758"/>
      <point x="113" y="533"/>
      <point x="113" y="306" type="curve" smooth="yes"/>
      <point x="113" y="244"/>
      <point x="113" y="112"/>
      <point x="68" y="65" type="curve"/>
      <point x="68" y="14"/>
      <point x="126" y="-5"/>
      <point x="168" y="-5" type="curve" smooth="yes"/>
      <point x="212" y="-5"/>
      <point x="291" y="63"/>
      <point x="325" y="92" type="curve" smooth="yes"/>
      <point x="481" y="224"/>
      <point x="585" y="510"/>
      <point x="585" y="711" type="curve" smooth="yes"/>
      <point x="585" y="733"/>
      <point x="590" y="754"/>
    </contour>
    <contour>
      <point x="211" y="310" type="curve" smooth="yes"/>
      <point x="211" y="683"/>
      <point x="163" y="1054"/>
      <point x="162" y="1427" type="curve"/>
      <point x="182" y="1429" type="line"/>
      <point x="464" y="1429"/>
      <point x="488" y="1061"/>
      <point x="488" y="854" type="curve" smooth="yes"/>
      <point x="488" y="615"/>
      <point x="428" y="254"/>
      <point x="211" y="114" type="curve"/>
      <point x="211" y="136"/>
      <point x="211" y="157"/>
      <point x="211" y="179" type="curve" smooth="yes"/>
      <point x="211" y="223"/>
      <point x="211" y="267"/>
    </contour>
  </outline>
</glyph>
<glyph name="R" format="1">
  <advance width="548"/>
  <unicode hex="0052"/>
  <outline>
    <contour>
      <point x="282" y="1206" type="line"/>
      <point x="251" y="1030" type="line"/>
      <point x="230" y="1002"/>
      <point x="207" y="975"/>
      <point x="182" y="951" type="curve"/>
      <point x="180" y="982"/>
      <point x="180" y="1014"/>
      <point x="180" y="1045" type="curve" smooth="yes"/>
      <point x="180" y="1184"/>
      <point x="190" y="1324"/>
      <point x="191" y="1463" type="curve"/>
      <point x="261" y="1449"/>
      <point x="283" y="1266"/>
      <point x="283" y="1207" type="curve"/>
    </contour>
    <contour>
      <point x="140" y="1557" type="curve" smooth="yes"/>
      <point x="91" y="1557"/>
      <point x="85" y="1541"/>
      <point x="85" y="1513" type="curve" smooth="yes"/>
      <point x="85" y="1504"/>
      <point x="86" y="1494"/>
      <point x="86" y="1482" type="curve" smooth="yes"/>
      <point x="86" y="1261" type="line" smooth="yes"/>
      <point x="86" y="861"/>
      <point x="78" y="460"/>
      <point x="78" y="60" type="curve"/>
      <point x="72" y="50" type="line"/>
      <point x="72" y="44" type="line" smooth="yes"/>
      <point x="72" y="12"/>
      <point x="99" y="-13"/>
      <point x="130" y="-13" type="curve" smooth="yes"/>
      <point x="181" y="-13"/>
      <point x="189" y="17"/>
      <point x="189" y="52" type="curve" smooth="yes"/>
      <point x="189" y="68"/>
      <point x="187" y="85"/>
      <point x="187" y="101" type="curve" smooth="yes"/>
      <point x="187" y="854" type="line"/>
      <point x="198" y="859" type="line"/>
      <point x="232" y="724"/>
      <point x="250" y="586"/>
      <point x="281" y="450" type="curve" smooth="yes"/>
      <point x="312" y="312"/>
      <point x="381" y="183"/>
      <point x="390" y="41" type="curve" smooth="yes"/>
      <point x="390" y="34" type="line"/>
      <point x="407" y="8"/>
      <point x="430" y="-21"/>
      <point x="464" y="-21" type="curve" smooth="yes"/>
      <point x="515" y="-21"/>
      <point x="514" y="35"/>
      <point x="514" y="71" type="curve"/>
      <point x="513" y="76" type="line" smooth="yes"/>
      <point x="442" y="299"/>
      <point x="306" y="648"/>
      <point x="303" y="876" type="curve"/>
      <point x="346" y="985"/>
      <point x="398" y="1097"/>
      <point x="398" y="1217" type="curve" smooth="yes"/>
      <point x="398" y="1370"/>
      <point x="317" y="1557"/>
    </contour>
  </outline>
</glyph>
<glyph name="X" format="1">
  <advance width="520"/>
  <unicode hex="0058"/>
  <outline>
    <contour>
      <point x="77" y="1480" type="line"/>
      <point x="77" y="1473" type="line" smooth="yes"/>
      <point x="77" y="1262"/>
      <point x="210" y="1045"/>
      <point x="210" y="819" type="curve" smooth="yes"/>
      <point x="210" y="689"/>
      <point x="125" y="326"/>
      <point x="84" y="193" type="curve" smooth="yes"/>
      <point x="69" y="144"/>
      <point x="38" y="84"/>
      <point x="38" y="33" type="curve" smooth="yes"/>
      <point x="38" y="5"/>
      <point x="68" y="-13"/>
      <point x="93" y="-13" type="curve" smooth="yes"/>
      <point x="150" y="-13"/>
      <point x="159" y="31"/>
      <point x="167" y="77" type="curve" smooth="yes"/>
      <point x="195" y="232"/>
      <point x="231" y="385"/>
      <point x="267" y="538" type="curve"/>
      <point x="302" y="385"/>
      <point x="350" y="231"/>
      <point x="350" y="73" type="curve" smooth="yes"/>
      <point x="350" y="38"/>
      <point x="379" y="24"/>
      <point x="410" y="24" type="curve" smooth="yes"/>
      <point x="440" y="24"/>
      <point x="466" y="50"/>
      <point x="466" y="80" type="curve" smooth="yes"/>
      <point x="466" y="134"/>
      <point x="436" y="182"/>
      <point x="432" y="236" type="curve"/>
      <point x="436" y="248" type="line"/>
      <point x="424" y="309"/>
      <point x="326" y="765"/>
      <point x="326" y="796" type="curve" smooth="yes"/>
      <point x="326" y="872"/>
      <point x="423" y="1343"/>
      <point x="451" y="1419" type="curve" smooth="yes"/>
      <point x="461" y="1447"/>
      <point x="479" y="1474"/>
      <point x="479" y="1505" type="curve" smooth="yes"/>
      <point x="479" y="1536"/>
      <point x="444" y="1550"/>
      <point x="418" y="1550" type="curve" smooth="yes"/>
      <point x="339" y="1550"/>
      <point x="296" y="1158"/>
      <point x="276" y="1087" type="curve"/>
      <point x="253" y="1196"/>
      <point x="216" y="1304"/>
      <point x="201" y="1415" type="curve" smooth="yes"/>
      <point x="194" y="1463"/>
      <point x="202" y="1520"/>
      <point x="135" y="1520" type="curve" smooth="yes"/>
      <point x="109" y="1520"/>
      <point x="89" y="1500"/>
      <point x="79" y="1478" type="curve"/>
    </contour>
  </outline>
</glyph>
<glyph name="backslash" format="1">
  <advance width="511"/>
  <unicode hex="005C"/>
  <outline>
    <contour>
      <point x="439" y="-30" type="line"/>
      <point x="460" y="-17"/>
      <point x="477" y="6"/>
      <point x="477" y="31" type="curve" smooth="yes"/>
      <point x="477" y="332"/>
      <point x="226" y="1109"/>
      <point x="148" y="1453" type="curve" smooth="yes"/>
      <point x="141" y="1484"/>
      <point x="136" y="1555"/>
      <point x="91" y="1555" type="curve" smooth="yes"/>
      <point x="63" y="1555"/>
      <point x="36" y="1535"/>
      <point x="36" y="1505" type="curve" smooth="yes"/>
      <point x="36" y="1439"/>
      <point x="64" y="1376"/>
      <point x="78" y="1312" type="curve" smooth="yes"/>
      <point x="153" y="972"/>
      <point x="236" y="633"/>
      <point x="309" y="293" type="curve" smooth="yes"/>
      <point x="322" y="234"/>
      <point x="356" y="-31"/>
      <point x="431" y="-31" type="curve"/>
    </contour>
  </outline>
</glyph>
<glyph name="b" format="1">
  <advance width="491"/>
  <unicode hex="0062"/>
  <outline>
    <contour>
      <point x="358" y="1296" type="curve" smooth="yes"/>
      <point x="358" y="1350"/>
      <point x="191" y="1383"/>
      <point x="150" y="1383" type="curve" smooth="yes"/>
      <point x="92" y="1383"/>
      <point x="83" y="1338"/>
      <point x="83" y="1290" type="curve"/>
      <point x="92" y="1279" type="line"/>
      <point x="94" y="1244"/>
      <point x="94" y="1208"/>
      <point x="94" y="1173" type="curve" smooth="yes"/>
      <point x="94" y="957"/>
      <point x="85" y="740"/>
      <point x="85" y="524" type="curve" smooth="yes"/>
      <point x="85" y="378"/>
      <point x="65" y="234"/>
      <point x="65" y="88" type="curve" smooth="yes"/>
      <point x="65" y="42"/>
      <point x="67" y="-20"/>
      <point x="129" y="-20" type="curve" smooth="yes"/>
      <point x="349" y="-20"/>
      <point x="431" y="167"/>
      <point x="431" y="360" type="curve" smooth="yes"/>
      <point x="431" y="475"/>
      <point x="425" y="620"/>
      <point x="336" y="705" type="curve"/>
      <point x="361" y="740"/>
      <point x="385" y="775"/>
      <point x="401" y="815" type="curve"/>
      <point x="395" y="815" type="line"/>
      <point x="414" y="884"/>
      <point x="419" y="956"/>
      <point x="419" y="1028" type="curve" smooth="yes"/>
      <point x="419" y="1118"/>
      <point x="358" y="1205"/>
    </contour>
    <contour>
      <point x="195" y="244" type="curve"/>
      <point x="188" y="273"/>
      <point x="188" y="303"/>
      <point x="188" y="333" type="curve" smooth="yes"/>
      <point x="188" y="436"/>
      <point x="190" y="540"/>
      <point x="197" y="643" type="curve"/>
      <point x="312" y="619"/>
      <point x="321" y="400"/>
      <point x="321" y="308" type="curve" smooth="yes"/>
      <point x="321" y="217"/>
      <point x="282" y="107"/>
      <point x="183" y="84" type="curve"/>
      <point x="181" y="176" type="line" smooth="yes"/>
      <point x="180" y="199"/>
      <point x="182" y="224"/>
    </contour>
    <contour>
      <point x="195" y="934" type="line"/>
      <point x="193" y="1054" type="line" smooth="yes"/>
      <point x="192" y="1107"/>
      <point x="197" y="1244"/>
      <point x="218" y="1288" type="curve"/>
      <point x="303" y="1278"/>
      <point x="302" y="1076"/>
      <point x="302" y="1012" type="curve" smooth="yes"/>
      <point x="302" y="939"/>
      <point x="296" y="766"/>
      <point x="194" y="763" type="curve"/>
      <point x="191" y="777" type="line"/>
      <point x="191" y="935" type="line"/>
    </contour>
  </outline>
</glyph>
<glyph name="g" format="1">
  <advance width="638"/>
  <unicode hex="0067"/>
  <outline>
    <contour>
      <point x="375" y="624" type="line"/>
      <point x="339" y="624"/>
      <point x="303" y="606"/>
      <point x="303" y="565" type="curve" smooth="yes"/>
      <point x="303" y="524"/>
      <point x="339" y="518"/>
      <point x="374" y="518" type="curve" smooth="yes"/>
      <point x="389" y="518"/>
      <point x="403" y="519"/>
      <point x="414" y="519" type="curve" smooth="yes"/>
      <point x="431" y="519"/>
      <point x="447" y="519"/>
      <point x="462" y="511" type="curve"/>
      <point x="462" y="450" type="line" smooth="yes"/>
      <point x="462" y="380"/>
      <point x="469" y="91"/>
      <point x="363" y="91" type="curve" smooth="yes"/>
      <point x="139" y="91"/>
      <point x="247" y="367"/>
      <point x="174" y="493" type="curve"/>
      <point x="169" y="538"/>
      <point x="168" y="584"/>
      <point x="168" y="629" type="curve" smooth="yes"/>
      <point x="168" y="732"/>
      <point x="178" y="1252"/>
      <point x="327" y="1252" type="curve" smooth="yes"/>
      <point x="341" y="1252"/>
      <point x="355" y="1247"/>
      <point x="370" y="1247" type="curve" smooth="yes"/>
      <point x="401" y="1247"/>
      <point x="435" y="1268"/>
      <point x="435" y="1302" type="curve" smooth="yes"/>
      <point x="435" y="1349"/>
      <point x="383" y="1354"/>
      <point x="348" y="1354" type="curve" smooth="yes"/>
      <point x="94" y="1354"/>
      <point x="80" y="1094"/>
      <point x="66" y="903" type="curve" smooth="yes"/>
      <point x="59" y="809"/>
      <point x="46" y="716"/>
      <point x="46" y="622" type="curve" smooth="yes"/>
      <point x="46" y="506"/>
      <point x="67" y="136"/>
      <point x="136" y="54" type="curve" smooth="yes"/>
      <point x="185" y="-5"/>
      <point x="266" y="-16"/>
      <point x="338" y="-16" type="curve" smooth="yes"/>
      <point x="426" y="-16"/>
      <point x="501" y="36"/>
      <point x="564" y="93" type="curve"/>
      <point x="571" y="126"/>
      <point x="573" y="160"/>
      <point x="573" y="194" type="curve" smooth="yes"/>
      <point x="573" y="266"/>
      <point x="563" y="341"/>
      <point x="563" y="411" type="curve" smooth="yes"/>
      <point x="563" y="462"/>
      <point x="585" y="509"/>
      <point x="585" y="560" type="curve" smooth="yes"/>
      <point x="585" y="619"/>
      <point x="465" y="623"/>
      <point x="401" y="623" type="curve" smooth="yes"/>
      <point x="389" y="623"/>
      <point x="380" y="623"/>
      <point x="373" y="623" type="curve"/>
    </contour>
  </outline>
</glyph>
<glyph name="q" format="1">
  <advance width="644"/>
  <unicode hex="0071"/>
  <outline>
    <contour>
      <point x="271" y="1288" type="curve" smooth="yes"/>
      <point x="459" y="1288"/>
      <point x="473" y="1004"/>
      <point x="473" y="869" type="curve" smooth="yes"/>
      <point x="473" y="511" type="line" smooth="yes"/>
      <point x="473" y="439"/>
      <point x="408" y="18"/>
      <point x="353" y="18" type="curve" smooth="yes"/>
      <point x="333" y="18"/>
      <point x="312" y="14"/>
      <point x="293" y="6" type="curve"/>
      <point x="151" y="7"/>
      <point x="151" y="590"/>
      <point x="151" y="699" type="curve" smooth="yes"/>
      <point x="151" y="785"/>
      <point x="172" y="1288"/>
    </contour>
    <contour>
      <point x="500" y="-434" type="line"/>
      <point x="528" y="-434"/>
      <point x="550" y="-412"/>
      <point x="550" y="-384" type="curve" smooth="yes"/>
      <point x="550" y="-333"/>
      <point x="496" y="-326"/>
      <point x="455" y="-326" type="curve" smooth="yes"/>
      <point x="452" y="-326"/>
      <point x="448" y="-326"/>
      <point x="445" y="-326" type="curve"/>
      <point x="425" y="-235"/>
      <point x="399" y="-143"/>
      <point x="399" y="-49" type="curve"/>
      <point x="579" y="30"/>
      <point x="582" y="635"/>
      <point x="582" y="812" type="curve" smooth="yes"/>
      <point x="582" y="990"/>
      <point x="570" y="1262"/>
      <point x="376" y="1341" type="curve" smooth="yes"/>
      <point x="346" y="1353"/>
      <point x="313" y="1356"/>
      <point x="283" y="1369" type="curve"/>
      <point x="277" y="1369" type="line" smooth="yes"/>
      <point x="61" y="1369"/>
      <point x="52" y="903"/>
      <point x="52" y="754" type="curve" smooth="yes"/>
      <point x="52" y="583"/>
      <point x="56" y="411"/>
      <point x="74" y="241" type="curve" smooth="yes"/>
      <point x="91" y="81"/>
      <point x="126" y="-25"/>
      <point x="299" y="-62" type="curve"/>
      <point x="320" y="-169"/>
      <point x="344" y="-276"/>
      <point x="344" y="-385" type="curve"/>
      <point x="382" y="-427"/>
      <point x="449" y="-432"/>
      <point x="502" y="-432" type="curve"/>
    </contour>
  </outline>
</glyph>
<glyph name="v" format="1">
  <advance width="666"/>
  <unicode hex="0076"/>
  <outline>
    <contour>
      <point x="343" y="247" type="curve"/>
      <point x="300" y="547"/>
      <point x="244" y="843"/>
      <point x="179" y="1139" type="curve" smooth="yes"/>
      <point x="167" y="1194"/>
      <point x="156" y="1366"/>
      <point x="78" y="1366" type="curve" smooth="yes"/>
      <point x="53" y="1366"/>
      <point x="28" y="1345"/>
      <point x="28" y="1319" type="curve" smooth="yes"/>
      <point x="28" y="1274"/>
      <point x="71" y="1161"/>
      <point x="84" y="1110" type="curve" smooth="yes"/>
      <point x="176" y="754"/>
      <point x="266" y="377"/>
      <point x="266" y="7" type="curve"/>
      <point x="304" y="-24" type="line"/>
      <point x="312" y="-24" type="line" smooth="yes"/>
      <point x="424" y="-24"/>
      <point x="408" y="156"/>
      <point x="421" y="230" type="curve" smooth="yes"/>
      <point x="434" y="304"/>
      <point x="460" y="375"/>
      <point x="472" y="449" type="curve" smooth="yes"/>
      <point x="491" y="572"/>
      <point x="495" y="698"/>
      <point x="515" y="821" type="curve" smooth="yes"/>
      <point x="544" y="998"/>
      <point x="624" y="1170"/>
      <point x="624" y="1351" type="curve" smooth="yes"/>
      <point x="624" y="1377"/>
      <point x="600" y="1393"/>
      <point x="577" y="1396" type="curve"/>
      <point x="531" y="1378" type="line"/>
      <point x="484" y="1096"/>
      <point x="416" y="817"/>
      <point x="383" y="532" type="curve" smooth="yes"/>
      <point x="372" y="437"/>
      <point x="362" y="341"/>
    </contour>
  </outline>
</glyph>
<glyph name="x" format="1">
  <advance width="471"/>
  <unicode hex="0078"/>
  <outline>
    <contour>
      <point x="348" y="638" type="line"/>
      <point x="395" y="638" type="line"/>
      <point x="395" y="646" type="line"/>
      <point x="348" y="646" type="line"/>
    </contour>
    <contour>
      <point x="180" y="660" type="line"/>
      <point x="180" y="447"/>
      <point x="65" y="253"/>
      <point x="65" y="40" type="curve" smooth="yes"/>
      <point x="65" y="8"/>
      <point x="100" y="-7"/>
      <point x="127" y="-7" type="curve" smooth="yes"/>
      <point x="169" y="-7"/>
      <point x="180" y="33"/>
      <point x="180" y="69" type="curve" smooth="yes"/>
      <point x="180" y="78"/>
      <point x="180" y="86"/>
      <point x="179" y="93" type="curve"/>
      <point x="213" y="203"/>
      <point x="211" y="320"/>
      <point x="231" y="433" type="curve"/>
      <point x="261" y="294"/>
      <point x="299" y="156"/>
      <point x="330" y="17" type="curve"/>
      <point x="344" y="9"/>
      <point x="361" y="3"/>
      <point x="377" y="3" type="curve" smooth="yes"/>
      <point x="405" y="3"/>
      <point x="432" y="24"/>
      <point x="432" y="54" type="curve" smooth="yes"/>
      <point x="432" y="175"/>
      <point x="284" y="475"/>
      <point x="284" y="646" type="curve" smooth="yes"/>
      <point x="284" y="741"/>
      <point x="330" y="1021"/>
      <point x="362" y="1109" type="curve"/>
      <point x="360" y="1133" type="line"/>
      <point x="360" y="1193"/>
      <point x="362" y="1258"/>
      <point x="397" y="1309" type="curve"/>
      <point x="359" y="1357" type="line"/>
      <point x="277" y="1335"/>
      <point x="267" y="1286"/>
      <point x="267" y="1225" type="curve" smooth="yes"/>
      <point x="267" y="1204"/>
      <point x="268" y="1181"/>
      <point x="268" y="1158" type="curve" smooth="yes"/>
      <point x="268" y="1069"/>
      <point x="249" y="981"/>
      <point x="234" y="894" type="curve"/>
      <point x="213" y="995"/>
      <point x="185" y="1094"/>
      <point x="164" y="1194" type="curve" smooth="yes"/>
      <point x="154" y="1240"/>
      <point x="165" y="1334"/>
      <point x="96" y="1334" type="curve" smooth="yes"/>
      <point x="72" y="1334"/>
      <point x="35" y="1322"/>
      <point x="35" y="1292" type="curve" smooth="yes"/>
      <point x="35" y="1274"/>
      <point x="41" y="1254"/>
      <point x="54" y="1241" type="curve"/>
      <point x="52" y="1219" type="line"/>
      <point x="85" y="1172"/>
      <point x="179" y="733"/>
      <point x="181" y="660" type="curve"/>
    </contour>
  </outline>
</glyph>
<glyph name="cent" format="1">
  <advance width="605"/>
  <unicode hex="00A2"/>
  <outline>
    <contour>
      <point x="279" y="203" type="line"/>
      <point x="279" y="157"/>
      <point x="287" y="111"/>
      <point x="287" y="65" type="curve" smooth="yes"/>
      <point x="287" y="49"/>
      <point x="286" y="32"/>
      <point x="283" y="15" type="curve"/>
      <point x="321" y="-20" type="line"/>
      <point x="330" y="-20" type="line" smooth="yes"/>
      <point x="356" y="-20"/>
      <point x="378" y="2"/>
      <point x="378" y="28" type="curve" smooth="yes"/>
      <point x="378" y="93"/>
      <point x="364" y="157"/>
      <point x="364" y="222" type="curve" smooth="yes"/>
      <point x="364" y="249"/>
      <point x="368" y="275"/>
      <point x="372" y="301" type="curve"/>
      <point x="438" y="307"/>
      <point x="576" y="373"/>
      <point x="576" y="451" type="curve" smooth="yes"/>
      <point x="576" y="492"/>
      <point x="558" y="511"/>
      <point x="517" y="511" type="curve"/>
      <point x="478" y="452"/>
      <point x="443" y="395"/>
      <point x="365" y="391" type="curve"/>
      <point x="364" y="395"/>
      <point x="363" y="399"/>
      <point x="363" y="403" type="curve" smooth="yes"/>
      <point x="363" y="411"/>
      <point x="365" y="420"/>
      <point x="365" y="428" type="curve" smooth="yes"/>
      <point x="365" y="676"/>
      <point x="309" y="921"/>
      <point x="304" y="1169" type="curve"/>
      <point x="309" y="1169" type="line"/>
      <point x="367" y="1140" type="line"/>
      <point x="378" y="1112"/>
      <point x="403" y="1084"/>
      <point x="435" y="1084" type="curve" smooth="yes"/>
      <point x="459" y="1084"/>
      <point x="477" y="1114"/>
      <point x="477" y="1135" type="curve" smooth="yes"/>
      <point x="477" y="1140" type="line"/>
      <point x="479" y="1140" type="line"/>
      <point x="472" y="1218"/>
      <point x="354" y="1236"/>
      <point x="295" y="1254" type="curve"/>
      <point x="290" y="1293"/>
      <point x="285" y="1332"/>
      <point x="285" y="1371" type="curve" smooth="yes"/>
      <point x="285" y="1393"/>
      <point x="287" y="1414"/>
      <point x="290" y="1436" type="curve"/>
      <point x="260" y="1456" type="line"/>
      <point x="253" y="1456" type="line" smooth="yes"/>
      <point x="207" y="1456"/>
      <point x="201" y="1403"/>
      <point x="201" y="1368" type="curve" smooth="yes"/>
      <point x="201" y="1330"/>
      <point x="208" y="1292"/>
      <point x="212" y="1254" type="curve"/>
      <point x="54" y="1156"/>
      <point x="49" y="943"/>
      <point x="49" y="777" type="curve" smooth="yes"/>
      <point x="49" y="560"/>
      <point x="52" y="402"/>
      <point x="284" y="313" type="curve"/>
      <point x="284" y="276"/>
      <point x="276" y="239"/>
      <point x="276" y="202" type="curve"/>
    </contour>
    <contour>
      <point x="213" y="1125" type="curve"/>
      <point x="258" y="897"/>
      <point x="270" y="656"/>
      <point x="271" y="424" type="curve"/>
      <point x="152" y="444"/>
      <point x="148" y="699"/>
      <point x="148" y="790" type="curve" smooth="yes"/>
      <point x="148" y="882"/>
      <point x="161" y="1049"/>
    </contour>
  </outline>
</glyph>
<glyph name="guillemotleft" format="1">
  <advance width="698"/>
  <unicode hex="00AB"/>
  <outline>
    <contour>
      <point x="442" y="1440" type="curve"/>
      <point x="440" y="1473"/>
      <point x="407" y="1489"/>
      <point x="378" y="1489" type="curve" smooth="yes"/>
      <point x="372" y="1489"/>
      <point x="365" y="1486"/>
      <point x="359" y="1485" type="curve"/>
      <point x="359" y="1483" type="line"/>
      <point x="334" y="1456"/>
      <point x="302" y="1398"/>
      <point x="298" y="1361" type="curve"/>
      <point x="260" y="1261"/>
      <point x="37" y="749"/>
      <point x="37" y="697" type="curve" smooth="yes"/>
      <point x="37" y="607"/>
      <point x="396" y="-59"/>
      <point x="441" y="-59" type="curve" smooth="yes"/>
      <point x="467" y="-59"/>
      <point x="505" y="-45"/>
      <point x="505" y="-13" type="curve" smooth="yes"/>
      <point x="505" y="65"/>
      <point x="181" y="526"/>
      <point x="148" y="687" type="curve"/>
      <point x="262" y="929"/>
      <point x="335" y="1193"/>
    </contour>
    <contour>
      <point x="665" y="49" type="curve"/>
      <point x="639" y="69" type="line"/>
      <point x="602" y="135"/>
      <point x="328" y="679"/>
      <point x="328" y="702" type="curve" smooth="yes"/>
      <point x="328" y="869"/>
      <point x="559" y="1193"/>
      <point x="586" y="1411" type="curve"/>
      <point x="541" y="1446" type="line"/>
      <point x="538" y="1446"/>
      <point x="536" y="1447"/>
      <point x="534" y="1447" type="curve" smooth="yes"/>
      <point x="473" y="1447"/>
      <point x="446" y="1293"/>
      <point x="435" y="1255" type="curve" smooth="yes"/>
      <point x="397" y="1125"/>
      <point x="214" y="798"/>
      <point x="211" y="698" type="curve"/>
      <point x="251" y="612"/>
      <point x="539" y="-8"/>
      <point x="571" y="-18" type="curve" smooth="yes"/>
      <point x="583" y="-22"/>
      <point x="599" y="-22"/>
      <point x="611" y="-22" type="curve" smooth="yes"/>
      <point x="648" y="-22"/>
      <point x="663" y="19"/>
    </contour>
  </outline>
</glyph>
<glyph name="registered" format="1">
  <advance width="1125"/>
  <unicode hex="00AE"/>
  <outline>
    <contour>
      <point x="545" y="1525" type="curve" smooth="yes"/>
      <point x="655" y="1525"/>
      <point x="653" y="1347"/>
      <point x="653" y="1272" type="curve" smooth="yes"/>
      <point x="653" y="1142"/>
      <point x="589" y="1049"/>
      <point x="468" y="1000" type="curve"/>
      <point x="446" y="1086"/>
      <point x="445" y="1175"/>
      <point x="445" y="1263" type="curve" smooth="yes"/>
      <point x="445" y="1312"/>
      <point x="437" y="1364"/>
      <point x="437" y="1407" type="curve" smooth="yes"/>
      <point x="437" y="1475"/>
      <point x="455" y="1525"/>
    </contour>
    <contour>
      <point x="853" y="199" type="curve" smooth="yes"/>
      <point x="853" y="239"/>
      <point x="823" y="271"/>
      <point x="823" y="314" type="curve"/>
      <point x="816" y="314" type="line"/>
      <point x="782" y="425"/>
      <point x="637" y="888"/>
      <point x="634" y="969" type="curve"/>
      <point x="645" y="1007"/>
      <point x="775" y="1023"/>
      <point x="775" y="1270" type="curve" smooth="yes"/>
      <point x="775" y="1433"/>
      <point x="746" y="1635"/>
      <point x="539" y="1635" type="curve" smooth="yes"/>
      <point x="405" y="1635"/>
      <point x="323" y="1603"/>
      <point x="323" y="1454" type="curve" smooth="yes"/>
      <point x="323" y="1327"/>
      <point x="348" y="1202"/>
      <point x="348" y="1075" type="curve" smooth="yes"/>
      <point x="348" y="676" type="line" smooth="yes"/>
      <point x="348" y="606"/>
      <point x="367" y="539"/>
      <point x="374" y="470" type="curve" smooth="yes"/>
      <point x="383" y="383"/>
      <point x="382" y="295"/>
      <point x="382" y="208" type="curve" smooth="yes"/>
      <point x="382" y="169"/>
      <point x="419" y="143"/>
      <point x="455" y="143" type="curve" smooth="yes"/>
      <point x="495" y="143"/>
      <point x="511" y="174"/>
      <point x="511" y="210" type="curve" smooth="yes"/>
      <point x="511" y="406"/>
      <point x="466" y="600"/>
      <point x="466" y="796" type="curve" smooth="yes"/>
      <point x="466" y="828"/>
      <point x="469" y="859"/>
      <point x="471" y="891" type="curve"/>
      <point x="526" y="914" type="line"/>
      <point x="572" y="797"/>
      <point x="674" y="143"/>
      <point x="796" y="143" type="curve" smooth="yes"/>
      <point x="819" y="143"/>
      <point x="853" y="175"/>
    </contour>
    <contour>
      <point x="832" y="1655" type="curve" smooth="yes"/>
      <point x="972" y="1368"/>
      <point x="958" y="1022"/>
      <point x="958" y="706" type="curve" smooth="yes"/>
      <point x="958" y="396"/>
      <point x="939" y="-79"/>
      <point x="522" y="-84" type="curve"/>
      <point x="503" y="-76" type="line"/>
      <point x="443" y="-64" type="line"/>
      <point x="402" y="-31"/>
      <point x="356" y="-13"/>
      <point x="320" y="27" type="curve" smooth="yes"/>
      <point x="182" y="179"/>
      <point x="180" y="747"/>
      <point x="180" y="954" type="curve" smooth="yes"/>
      <point x="180" y="1241"/>
      <point x="203" y="1832"/>
      <point x="605" y="1832" type="curve" smooth="yes"/>
      <point x="674" y="1832"/>
      <point x="802" y="1716"/>
    </contour>
    <contour>
      <point x="594" y="-190" type="curve" smooth="yes"/>
      <point x="1071" y="-190"/>
      <point x="1072" y="470"/>
      <point x="1072" y="807" type="curve" smooth="yes"/>
      <point x="1072" y="968"/>
      <point x="1024" y="1679"/>
      <point x="900" y="1755" type="curve"/>
      <point x="829" y="1851"/>
      <point x="715" y="1938"/>
      <point x="590" y="1938" type="curve" smooth="yes"/>
      <point x="12" y="1938"/>
      <point x="60" y="1060"/>
      <point x="60" y="757" type="curve" smooth="yes"/>
      <point x="60" y="358"/>
      <point x="93" y="-190"/>
    </contour>
  </outline>
</glyph>
<glyph name="macron" format="1">
  <advance width="587"/>
  <unicode hex="00AF"/>
  <outline>
    <contour>
      <point x="516" y="749" type="curve" smooth="yes"/>
      <point x="516" y="795"/>
      <point x="406" y="804"/>
      <point x="308" y="804" type="curve" smooth="yes"/>
      <point x="243" y="804"/>
      <point x="184" y="800"/>
      <point x="164" y="800" type="curve" smooth="yes"/>
      <point x="135" y="800"/>
      <point x="74" y="797"/>
      <point x="74" y="756" type="curve" smooth="yes"/>
      <point x="74" y="709"/>
      <point x="196" y="700"/>
      <point x="302" y="700" type="curve" smooth="yes"/>
      <point x="369" y="700"/>
      <point x="430" y="704"/>
      <point x="450" y="704" type="curve" smooth="yes"/>
      <point x="480" y="704"/>
      <point x="516" y="712"/>
    </contour>
  </outline>
</glyph>
<glyph name="degree" format="1">
  <advance width="828"/>
  <unicode hex="00B0"/>
  <outline>
    <contour>
      <point x="408" y="901" type="curve" smooth="yes"/>
      <point x="582" y="901"/>
      <point x="624" y="792"/>
      <point x="624" y="729" type="curve" smooth="yes"/>
      <point x="624" y="668"/>
      <point x="589" y="515"/>
      <point x="407" y="515" type="curve" smooth="yes"/>
      <point x="317" y="515"/>
      <point x="243" y="607"/>
      <point x="243" y="665" type="curve" smooth="yes"/>
      <point x="243" y="773"/>
      <point x="278" y="901"/>
    </contour>
    <contour>
      <point x="166" y="731" type="curve" smooth="yes"/>
      <point x="166" y="617"/>
      <point x="208" y="438"/>
      <point x="399" y="438" type="curve" smooth="yes"/>
      <point x="644" y="438"/>
      <point x="692" y="649"/>
      <point x="692" y="733" type="curve" smooth="yes"/>
      <point x="692" y="821"/>
      <point x="635" y="970"/>
      <point x="398" y="970" type="curve" smooth="yes"/>
      <point x="257" y="970"/>
      <point x="166" y="867"/>
    </contour>
  </outline>
</glyph>
<glyph name="plusminus" format="1">
  <advance width="684"/>
  <unicode hex="00B1"/>
  <outline>
    <contour>
      <point x="271" y="385" type="curve" smooth="yes"/>
      <point x="271" y="352"/>
      <point x="308" y="333"/>
      <point x="337" y="333" type="curve" smooth="yes"/>
      <point x="369" y="333"/>
      <point x="404" y="353"/>
      <point x="404" y="389" type="curve" smooth="yes"/>
      <point x="404" y="444"/>
      <point x="385" y="498"/>
      <point x="385" y="553" type="curve" smooth="yes"/>
      <point x="385" y="593"/>
      <point x="416" y="602"/>
      <point x="450" y="602" type="curve" smooth="yes"/>
      <point x="491" y="602"/>
      <point x="530" y="591"/>
      <point x="571" y="591" type="curve" smooth="yes"/>
      <point x="603" y="591"/>
      <point x="629" y="615"/>
      <point x="629" y="647" type="curve" smooth="yes"/>
      <point x="629" y="697"/>
      <point x="578" y="709"/>
      <point x="523" y="709" type="curve" smooth="yes"/>
      <point x="477" y="709"/>
      <point x="429" y="701"/>
      <point x="404" y="701" type="curve" smooth="yes"/>
      <point x="377" y="701"/>
      <point x="378" y="853"/>
      <point x="377" y="884" type="curve"/>
      <point x="385" y="904" type="line"/>
      <point x="385" y="909" type="line" smooth="yes"/>
      <point x="385" y="942"/>
      <point x="357" y="968"/>
      <point x="325" y="968" type="curve" smooth="yes"/>
      <point x="266" y="968"/>
      <point x="259" y="900"/>
      <point x="259" y="855" type="curve" smooth="yes"/>
      <point x="259" y="805"/>
      <point x="269" y="755"/>
      <point x="271" y="705" type="curve"/>
      <point x="255" y="702"/>
      <point x="240" y="701"/>
      <point x="224" y="701" type="curve" smooth="yes"/>
      <point x="184" y="701"/>
      <point x="143" y="708"/>
      <point x="103" y="708" type="curve" smooth="yes"/>
      <point x="74" y="708"/>
      <point x="57" y="682"/>
      <point x="57" y="655" type="curve" smooth="yes"/>
      <point x="57" y="602"/>
      <point x="97" y="590"/>
      <point x="144" y="590" type="curve" smooth="yes"/>
      <point x="184" y="590"/>
      <point x="230" y="599"/>
      <point x="258" y="599" type="curve"/>
      <point x="277" y="584" type="line"/>
      <point x="277" y="518"/>
      <point x="271" y="451"/>
    </contour>
    <contour>
      <point x="57" y="200" type="curve" smooth="yes"/>
      <point x="57" y="149"/>
      <point x="94" y="135"/>
      <point x="139" y="135" type="curve" smooth="yes"/>
      <point x="282" y="135"/>
      <point x="427" y="145"/>
      <point x="571" y="145" type="curve" smooth="yes"/>
      <point x="601" y="145"/>
      <point x="629" y="158"/>
      <point x="629" y="192" type="curve" smooth="yes"/>
      <point x="629" y="246"/>
      <point x="572" y="253"/>
      <point x="530" y="253" type="curve" smooth="yes"/>
      <point x="488" y="253"/>
      <point x="446" y="246"/>
      <point x="404" y="246" type="curve" smooth="yes"/>
      <point x="103" y="246" type="line" smooth="yes"/>
      <point x="75" y="246"/>
      <point x="57" y="228"/>
    </contour>
  </outline>
</glyph>
<glyph name="Oacute" format="1">
  <advance width="650"/>
  <unicode hex="00D3"/>
  <outline>
    <contour>
      <point x="217" y="1744" type="line"/>
      <point x="217" y="1705"/>
      <point x="252" y="1690"/>
      <point x="286" y="1690" type="curve"/>
      <point x="351" y="1759"/>
      <point x="466" y="1837"/>
      <point x="554" y="1873" type="curve"/>
      <point x="557" y="1889"/>
      <point x="563" y="1905"/>
      <point x="563" y="1922" type="curve" smooth="yes"/>
      <point x="563" y="1965"/>
      <point x="521" y="1978"/>
      <point x="485" y="1978" type="curve"/>
      <point x="437" y="1933"/>
      <point x="220" y="1801"/>
      <point x="218" y="1746" type="curve"/>
    </contour>
    <contour>
      <point x="284" y="1479" type="curve" smooth="yes"/>
      <point x="148" y="1479"/>
      <point x="150" y="952"/>
      <point x="150" y="854" type="curve" smooth="yes"/>
      <point x="150" y="722"/>
      <point x="195" y="57"/>
      <point x="360" y="57" type="curve" smooth="yes"/>
      <point x="478" y="57"/>
      <point x="490" y="563"/>
      <point x="490" y="655" type="curve" smooth="yes"/>
      <point x="490" y="799"/>
      <point x="485" y="1479"/>
    </contour>
    <contour>
      <point x="553" y="217" type="line"/>
      <point x="551" y="115"/>
      <point x="476" y="-55"/>
      <point x="356" y="-55" type="curve" smooth="yes"/>
      <point x="84" y="-55"/>
      <point x="58" y="611"/>
      <point x="58" y="801" type="curve" smooth="yes"/>
      <point x="58" y="917"/>
      <point x="68" y="1032"/>
      <point x="74" y="1148" type="curve" smooth="yes"/>
      <point x="82" y="1294"/>
      <point x="59" y="1587"/>
      <point x="274" y="1587" type="curve" smooth="yes"/>
      <point x="472" y="1587"/>
      <point x="512" y="1402"/>
      <point x="534" y="1244" type="curve" smooth="yes"/>
      <point x="563" y="1037"/>
      <point x="583" y="829"/>
      <point x="583" y="620" type="curve" smooth="yes"/>
      <point x="583" y="533"/>
      <point x="566" y="448"/>
      <point x="565" y="361" type="curve"/>
      <point x="570" y="352" type="line"/>
      <point x="560" y="308"/>
      <point x="552" y="263"/>
      <point x="552" y="217" type="curve"/>
    </contour>
  </outline>
</glyph>
<glyph name="Ocircumflex" format="1">
  <advance width="650"/>
  <unicode hex="00D4"/>
  <outline>
    <contour>
      <point x="296" y="1957" type="curve"/>
      <point x="315" y="1878"/>
      <point x="328" y="1798"/>
      <point x="336" y="1718" type="curve"/>
      <point x="380" y="1691" type="line"/>
      <point x="408" y="1693"/>
      <point x="445" y="1708"/>
      <point x="445" y="1741" type="curve" smooth="yes"/>
      <point x="445" y="1748"/>
      <point x="440" y="1759"/>
      <point x="438" y="1766" type="curve"/>
      <point x="440" y="1776" type="line"/>
      <point x="426" y="1807" type="line"/>
      <point x="427" y="1818" type="line"/>
      <point x="427" y="1891"/>
      <point x="365" y="1970"/>
      <point x="365" y="2056" type="curve" smooth="yes"/>
      <point x="365" y="2090"/>
      <point x="352" y="2123"/>
      <point x="313" y="2123" type="curve" smooth="yes"/>
      <point x="238" y="2123"/>
      <point x="123" y="1809"/>
      <point x="116" y="1740" type="curve"/>
      <point x="183" y="1692" type="line"/>
      <point x="250" y="1776"/>
      <point x="262" y="1859"/>
    </contour>
    <contour>
      <point x="281" y="1477" type="curve" smooth="yes"/>
      <point x="145" y="1477"/>
      <point x="147" y="950"/>
      <point x="147" y="852" type="curve" smooth="yes"/>
      <point x="147" y="720"/>
      <point x="192" y="55"/>
      <point x="357" y="55" type="curve" smooth="yes"/>
      <point x="475" y="55"/>
      <point x="487" y="561"/>
      <point x="487" y="653" type="curve" smooth="yes"/>
      <point x="487" y="797"/>
      <point x="482" y="1477"/>
    </contour>
    <contour>
      <point x="550" y="215" type="line"/>
      <point x="548" y="113"/>
      <point x="473" y="-57"/>
      <point x="353" y="-57" type="curve" smooth="yes"/>
      <point x="81" y="-57"/>
      <point x="55" y="609"/>
      <point x="55" y="799" type="curve" smooth="yes"/>
      <point x="55" y="915"/>
      <point x="65" y="1030"/>
      <point x="71" y="1146" type="curve" smooth="yes"/>
      <point x="79" y="1292"/>
      <point x="56" y="1585"/>
      <point x="271" y="1585" type="curve" smooth="yes"/>
      <point x="469" y="1585"/>
      <point x="509" y="1400"/>
      <point x="531" y="1242" type="curve" smooth="yes"/>
      <point x="560" y="1035"/>
      <point x="580" y="827"/>
      <point x="580" y="618" type="curve" smooth="yes"/>
      <point x="580" y="531"/>
      <point x="563" y="446"/>
      <point x="562" y="359" type="curve"/>
      <point x="567" y="350" type="line"/>
      <point x="557" y="306"/>
      <point x="549" y="261"/>
      <point x="549" y="215" type="curve"/>
    </contour>
  </outline>
</glyph>
<glyph name="Otilde" format="1">
  <advance width="650"/>
  <unicode hex="00D5"/>
  <outline>
    <contour>
      <point x="40" y="1749" type="line"/>
      <point x="40" y="1707"/>
      <point x="78" y="1690"/>
      <point x="115" y="1690" type="curve"/>
      <point x="151" y="1740" type="line"/>
      <point x="139" y="1788" type="line"/>
      <point x="168" y="1819" type="line"/>
      <point x="187" y="1819" type="line"/>
      <point x="192" y="1817" type="line"/>
      <point x="243" y="1758"/>
      <point x="304" y="1691"/>
      <point x="389" y="1691" type="curve" smooth="yes"/>
      <point x="460" y="1691"/>
      <point x="521" y="1752"/>
      <point x="521" y="1823" type="curve" smooth="yes"/>
      <point x="521" y="1865"/>
      <point x="500" y="1917"/>
      <point x="451" y="1917" type="curve" smooth="yes"/>
      <point x="430" y="1917"/>
      <point x="414" y="1903"/>
      <point x="405" y="1885" type="curve"/>
      <point x="407" y="1870"/>
      <point x="418" y="1853"/>
      <point x="418" y="1840" type="curve" smooth="yes"/>
      <point x="418" y="1814"/>
      <point x="402" y="1811"/>
      <point x="384" y="1795" type="curve"/>
      <point x="379" y="1797" type="line"/>
      <point x="365" y="1794" type="line"/>
      <point x="333" y="1794"/>
      <point x="301" y="1839"/>
      <point x="291" y="1866" type="curve"/>
      <point x="196" y="1918" type="line"/>
      <point x="189" y="1918" type="line" smooth="yes"/>
      <point x="94" y="1918"/>
      <point x="41" y="1837"/>
      <point x="41" y="1749" type="curve"/>
    </contour>
    <contour>
      <point x="284" y="1477" type="curve" smooth="yes"/>
      <point x="148" y="1477"/>
      <point x="150" y="950"/>
      <point x="150" y="852" type="curve" smooth="yes"/>
      <point x="150" y="720"/>
      <point x="195" y="55"/>
      <point x="360" y="55" type="curve" smooth="yes"/>
      <point x="478" y="55"/>
      <point x="490" y="561"/>
      <point x="490" y="653" type="curve" smooth="yes"/>
      <point x="490" y="797"/>
      <point x="485" y="1477"/>
    </contour>
    <contour>
      <point x="553" y="215" type="line"/>
      <point x="551" y="113"/>
      <point x="476" y="-57"/>
      <point x="356" y="-57" type="curve" smooth="yes"/>
      <point x="84" y="-57"/>
      <point x="58" y="609"/>
      <point x="58" y="799" type="curve" smooth="yes"/>
      <point x="58" y="915"/>
      <point x="68" y="1030"/>
      <point x="74" y="1146" type="curve" smooth="yes"/>
      <point x="82" y="1292"/>
      <point x="59" y="1585"/>
      <point x="274" y="1585" type="curve" smooth="yes"/>
      <point x="472" y="1585"/>
      <point x="512" y="1400"/>
      <point x="534" y="1242" type="curve" smooth="yes"/>
      <point x="563" y="1035"/>
      <point x="583" y="827"/>
      <point x="583" y="618" type="curve" smooth="yes"/>
      <point x="583" y="531"/>
      <point x="566" y="446"/>
      <point x="565" y="359" type="curve"/>
      <point x="570" y="350" type="line"/>
      <point x="560" y="306"/>
      <point x="552" y="261"/>
      <point x="552" y="215" type="curve"/>
    </contour>
  </outline>
</glyph>
<glyph name="Odieresis" format="1">
  <advance width="650"/>
  <unicode hex="00D6"/>
  <outline>
    <contour>
      <point x="552" y="214" type="line"/>
      <point x="550" y="112"/>
      <point x="475" y="-58"/>
      <point x="355" y="-58" type="curve" smooth="yes"/>
      <point x="83" y="-58"/>
      <point x="57" y="608"/>
      <point x="57" y="798" type="curve" smooth="yes"/>
      <point x="57" y="914"/>
      <point x="67" y="1029"/>
      <point x="73" y="1145" type="curve" smooth="yes"/>
      <point x="81" y="1291"/>
      <point x="58" y="1584"/>
      <point x="273" y="1584" type="curve" smooth="yes"/>
      <point x="471" y="1584"/>
      <point x="511" y="1399"/>
      <point x="533" y="1241" type="curve" smooth="yes"/>
      <point x="562" y="1034"/>
      <point x="582" y="826"/>
      <point x="582" y="617" type="curve" smooth="yes"/>
      <point x="582" y="530"/>
      <point x="565" y="445"/>
      <point x="564" y="358" type="curve"/>
      <point x="569" y="349" type="line"/>
      <point x="559" y="305"/>
      <point x="551" y="260"/>
      <point x="551" y="214" type="curve"/>
    </contour>
    <contour>
      <point x="283" y="1476" type="curve" smooth="yes"/>
      <point x="147" y="1476"/>
      <point x="149" y="949"/>
      <point x="149" y="851" type="curve" smooth="yes"/>
      <point x="149" y="719"/>
      <point x="194" y="54"/>
      <point x="359" y="54" type="curve" smooth="yes"/>
      <point x="477" y="54"/>
      <point x="489" y="560"/>
      <point x="489" y="652" type="curve" smooth="yes"/>
      <point x="489" y="796"/>
      <point x="484" y="1476"/>
    </contour>
    <contour>
      <point x="420" y="1759" type="curve" smooth="yes"/>
      <point x="420" y="1724"/>
      <point x="448" y="1690"/>
      <point x="484" y="1690" type="curve" smooth="yes"/>
      <point x="524" y="1690"/>
      <point x="561" y="1719"/>
      <point x="561" y="1761" type="curve" smooth="yes"/>
      <point x="561" y="1797"/>
      <point x="530" y="1834"/>
      <point x="493" y="1834" type="curve" smooth="yes"/>
      <point x="454" y="1834"/>
      <point x="420" y="1798"/>
    </contour>
    <contour>
      <point x="59" y="1690" type="curve" smooth="yes"/>
      <point x="98" y="1690"/>
      <point x="141" y="1720"/>
      <point x="141" y="1762" type="curve" smooth="yes"/>
      <point x="141" y="1801"/>
      <point x="108" y="1831"/>
      <point x="70" y="1831" type="curve" smooth="yes"/>
      <point x="29" y="1831"/>
      <point x="0" y="1797"/>
      <point x="0" y="1757" type="curve" smooth="yes"/>
      <point x="0" y="1720"/>
      <point x="20" y="1690"/>
    </contour>
  </outline>
</glyph>
<glyph name="Yacute" format="1">
  <advance width="453"/>
  <unicode hex="00DD"/>
  <outline>
    <contour>
      <point x="21" y="1744" type="line"/>
      <point x="21" y="1705"/>
      <point x="56" y="1690"/>
      <point x="90" y="1690" type="curve"/>
      <point x="155" y="1759"/>
      <point x="270" y="1837"/>
      <point x="358" y="1873" type="curve"/>
      <point x="361" y="1889"/>
      <point x="367" y="1905"/>
      <point x="367" y="1922" type="curve" smooth="yes"/>
      <point x="367" y="1965"/>
      <point x="325" y="1978"/>
      <point x="289" y="1978" type="curve"/>
      <point x="241" y="1933"/>
      <point x="24" y="1801"/>
      <point x="22" y="1746" type="curve"/>
    </contour>
    <contour>
      <point x="213" y="27" type="curve" smooth="yes"/>
      <point x="213" y="-1"/>
      <point x="238" y="-23"/>
      <point x="265" y="-23" type="curve" smooth="yes"/>
      <point x="299" y="-23"/>
      <point x="333" y="0"/>
      <point x="333" y="37" type="curve"/>
      <point x="331" y="77" type="line"/>
      <point x="325" y="83" type="line"/>
      <point x="326" y="117"/>
      <point x="326" y="151"/>
      <point x="326" y="185" type="curve" smooth="yes"/>
      <point x="326" y="366"/>
      <point x="315" y="547"/>
      <point x="315" y="728" type="curve"/>
      <point x="327" y="759" type="line"/>
      <point x="326" y="783"/>
      <point x="321" y="806"/>
      <point x="321" y="830" type="curve" smooth="yes"/>
      <point x="321" y="1064"/>
      <point x="419" y="1289"/>
      <point x="419" y="1519" type="curve" smooth="yes"/>
      <point x="419" y="1541"/>
      <point x="379" y="1541"/>
      <point x="365" y="1541" type="curve" smooth="yes"/>
      <point x="267" y="1541"/>
      <point x="257" y="1090"/>
      <point x="241" y="1008" type="curve"/>
      <point x="189" y="1187"/>
      <point x="151" y="1371"/>
      <point x="137" y="1556" type="curve"/>
      <point x="133" y="1528" type="line"/>
      <point x="98" y="1548" type="line"/>
      <point x="91" y="1548" type="line" smooth="yes"/>
      <point x="72" y="1548"/>
      <point x="26" y="1542"/>
      <point x="26" y="1515" type="curve" smooth="yes"/>
      <point x="26" y="1269"/>
      <point x="184" y="1027"/>
      <point x="184" y="778" type="curve" smooth="yes"/>
      <point x="184" y="658"/>
      <point x="223" y="543"/>
      <point x="223" y="423" type="curve" smooth="yes"/>
      <point x="223" y="291"/>
      <point x="213" y="159"/>
    </contour>
  </outline>
</glyph>
<glyph name="otilde" format="1">
  <advance width="651"/>
  <unicode hex="00F5"/>
  <outline>
    <contour>
      <point x="49" y="1534" type="line"/>
      <point x="49" y="1492"/>
      <point x="87" y="1475"/>
      <point x="124" y="1475" type="curve"/>
      <point x="160" y="1525" type="line"/>
      <point x="148" y="1573" type="line"/>
      <point x="177" y="1604" type="line"/>
      <point x="196" y="1604" type="line"/>
      <point x="201" y="1602" type="line"/>
      <point x="252" y="1543"/>
      <point x="313" y="1476"/>
      <point x="398" y="1476" type="curve" smooth="yes"/>
      <point x="469" y="1476"/>
      <point x="530" y="1537"/>
      <point x="530" y="1608" type="curve" smooth="yes"/>
      <point x="530" y="1650"/>
      <point x="509" y="1702"/>
      <point x="460" y="1702" type="curve" smooth="yes"/>
      <point x="439" y="1702"/>
      <point x="423" y="1688"/>
      <point x="414" y="1670" type="curve"/>
      <point x="416" y="1655"/>
      <point x="427" y="1638"/>
      <point x="427" y="1625" type="curve" smooth="yes"/>
      <point x="427" y="1599"/>
      <point x="411" y="1596"/>
      <point x="393" y="1580" type="curve"/>
      <point x="388" y="1582" type="line"/>
      <point x="374" y="1579" type="line"/>
      <point x="342" y="1579"/>
      <point x="310" y="1624"/>
      <point x="300" y="1651" type="curve"/>
      <point x="205" y="1703" type="line"/>
      <point x="198" y="1703" type="line" smooth="yes"/>
      <point x="103" y="1703"/>
      <point x="50" y="1622"/>
      <point x="50" y="1534" type="curve"/>
    </contour>
    <contour>
      <point x="172" y="906" type="line"/>
      <point x="193" y="1026"/>
      <point x="181" y="1150"/>
      <point x="210" y="1269" type="curve"/>
      <point x="283" y="1269" type="line" smooth="yes"/>
      <point x="386" y="1269"/>
      <point x="449" y="1170"/>
      <point x="452" y="1076" type="curve"/>
      <point x="446" y="1060" type="line"/>
      <point x="456" y="1040" type="line"/>
      <point x="457" y="881"/>
      <point x="479" y="722"/>
      <point x="479" y="563" type="curve" smooth="yes"/>
      <point x="479" y="453"/>
      <point x="465" y="46"/>
      <point x="308" y="46" type="curve" smooth="yes"/>
      <point x="174" y="46"/>
      <point x="163" y="612"/>
      <point x="163" y="716" type="curve" smooth="yes"/>
      <point x="163" y="779"/>
      <point x="173" y="842"/>
      <point x="173" y="905" type="curve"/>
    </contour>
    <contour>
      <point x="316" y="-39" type="curve" smooth="yes"/>
      <point x="574" y="-39"/>
      <point x="589" y="367"/>
      <point x="589" y="550" type="curve" smooth="yes"/>
      <point x="589" y="627"/>
      <point x="585" y="705"/>
      <point x="585" y="782" type="curve"/>
      <point x="589" y="792" type="line"/>
      <point x="589" y="797" type="line" smooth="yes"/>
      <point x="589" y="931"/>
      <point x="573" y="1121"/>
      <point x="499" y="1236" type="curve" smooth="yes"/>
      <point x="426" y="1350"/>
      <point x="371" y="1318"/>
      <point x="259" y="1352" type="curve"/>
      <point x="246" y="1368"/>
      <point x="225" y="1377"/>
      <point x="205" y="1377" type="curve" smooth="yes"/>
      <point x="50" y="1377"/>
      <point x="51" y="859"/>
      <point x="51" y="750" type="curve" smooth="yes"/>
      <point x="51" y="713" type="line"/>
      <point x="53" y="713"/>
      <point x="54" y="710"/>
      <point x="54" y="703" type="curve" smooth="yes"/>
      <point x="54" y="676"/>
      <point x="52" y="657"/>
      <point x="52" y="625" type="curve" smooth="yes"/>
      <point x="52" y="409"/>
      <point x="83" y="-39"/>
    </contour>
  </outline>
</glyph>
<glyph name="oslash" format="1">
  <advance width="523"/>
  <unicode hex="00F8"/>
  <outline>
    <contour>
      <point x="62" y="-194" type="line"/>
      <point x="62" y="-218"/>
      <point x="76" y="-246"/>
      <point x="104" y="-246" type="curve" smooth="yes"/>
      <point x="161" y="-246"/>
      <point x="172" y="-39"/>
      <point x="177" y="4" type="curve"/>
      <point x="200" y="-7"/>
      <point x="226" y="-12"/>
      <point x="251" y="-12" type="curve" smooth="yes"/>
      <point x="458" y="-12"/>
      <point x="461" y="276"/>
      <point x="461" y="422" type="curve" smooth="yes"/>
      <point x="461" y="539"/>
      <point x="457" y="656"/>
      <point x="455" y="773" type="curve" smooth="yes"/>
      <point x="454" y="860"/>
      <point x="427" y="956"/>
      <point x="425" y="1048" type="curve"/>
      <point x="428" y="1050" type="line"/>
      <point x="428" y="1064" type="line" smooth="yes"/>
      <point x="428" y="1126"/>
      <point x="415" y="1185"/>
      <point x="380" y="1237" type="curve"/>
      <point x="383" y="1244" type="line"/>
      <point x="354" y="1297" type="line"/>
      <point x="359" y="1397"/>
      <point x="395" y="1493"/>
      <point x="395" y="1593" type="curve"/>
      <point x="320" y="1593" type="line"/>
      <point x="301" y="1520"/>
      <point x="291" y="1444"/>
      <point x="278" y="1370" type="curve"/>
      <point x="273" y="1366" type="line"/>
      <point x="257" y="1375"/>
      <point x="238" y="1384"/>
      <point x="219" y="1384" type="curve" smooth="yes"/>
      <point x="58" y="1384"/>
      <point x="58" y="1106"/>
      <point x="58" y="995" type="curve" smooth="yes"/>
      <point x="58" y="778" type="line" smooth="yes"/>
      <point x="58" y="583"/>
      <point x="54" y="373"/>
      <point x="99" y="182" type="curve" smooth="yes"/>
      <point x="104" y="162"/>
      <point x="113" y="143"/>
      <point x="113" y="122" type="curve" smooth="yes"/>
      <point x="113" y="15"/>
      <point x="74" y="-87"/>
      <point x="64" y="-192" type="curve"/>
    </contour>
    <contour>
      <point x="267" y="73" type="curve" smooth="yes"/>
      <point x="218" y="73"/>
      <point x="206" y="87"/>
      <point x="206" y="135" type="curve" smooth="yes"/>
      <point x="206" y="164"/>
      <point x="213" y="192"/>
      <point x="220" y="220" type="curve" smooth="yes"/>
      <point x="290" y="515"/>
      <point x="285" y="825"/>
      <point x="326" y="1125" type="curve"/>
      <point x="365" y="893"/>
      <point x="364" y="657"/>
      <point x="364" y="423" type="curve" smooth="yes"/>
      <point x="364" y="314"/>
      <point x="359" y="73"/>
    </contour>
    <contour>
      <point x="220" y="1308" type="line"/>
      <point x="255" y="1280" type="line"/>
      <point x="255" y="1017"/>
      <point x="196" y="753"/>
      <point x="166" y="492" type="curve"/>
      <point x="156" y="588"/>
      <point x="143" y="684"/>
      <point x="143" y="780" type="curve" smooth="yes"/>
      <point x="143" y="906"/>
      <point x="144" y="1215"/>
      <point x="184" y="1298" type="curve"/>
      <point x="188" y="1297" type="line"/>
    </contour>
  </outline>
</glyph>
<glyph name="ydieresis" format="1">
  <advance width="513"/>
  <unicode hex="00FF"/>
  <outline>
    <contour>
      <point x="353" y="134" type="line"/>
      <point x="351" y="451" type="line"/>
      <point x="350" y="511"/>
      <point x="334" y="570"/>
      <point x="334" y="631" type="curve"/>
      <point x="342" y="649"/>
      <point x="347" y="668"/>
      <point x="347" y="688" type="curve" smooth="yes"/>
      <point x="347" y="700"/>
      <point x="341" y="715"/>
      <point x="336" y="726" type="curve"/>
      <point x="340" y="932"/>
      <point x="474" y="1118"/>
      <point x="474" y="1319" type="curve" smooth="yes"/>
      <point x="474" y="1346"/>
      <point x="448" y="1362"/>
      <point x="424" y="1362" type="curve" smooth="yes"/>
      <point x="334" y="1362"/>
      <point x="294" y="954"/>
      <point x="264" y="877" type="curve"/>
      <point x="238" y="951"/>
      <point x="155" y="1331"/>
      <point x="76" y="1333" type="curve"/>
      <point x="30" y="1299" type="line"/>
      <point x="30" y="1288" type="line" smooth="yes"/>
      <point x="30" y="1202"/>
      <point x="190" y="825"/>
      <point x="230" y="717" type="curve"/>
      <point x="224" y="692" type="line"/>
      <point x="237" y="664" type="line"/>
      <point x="241" y="564"/>
      <point x="254" y="464"/>
      <point x="254" y="364" type="curve" smooth="yes"/>
      <point x="254" y="300"/>
      <point x="254" y="62"/>
      <point x="231" y="17" type="curve"/>
      <point x="241" y="-6"/>
      <point x="261" y="-28"/>
      <point x="288" y="-28" type="curve" smooth="yes"/>
      <point x="350" y="-28"/>
      <point x="355" y="53"/>
      <point x="355" y="109" type="curve" smooth="yes"/>
      <point x="355" y="119"/>
      <point x="355" y="129"/>
      <point x="355" y="137" type="curve"/>
    </contour>
    <contour>
      <point x="382" y="1544" type="curve" smooth="yes"/>
      <point x="382" y="1509"/>
      <point x="410" y="1475"/>
      <point x="446" y="1475" type="curve" smooth="yes"/>
      <point x="486" y="1475"/>
      <point x="523" y="1504"/>
      <point x="523" y="1546" type="curve" smooth="yes"/>
      <point x="523" y="1582"/>
      <point x="492" y="1619"/>
      <point x="455" y="1619" type="curve" smooth="yes"/>
      <point x="416" y="1619"/>
      <point x="382" y="1583"/>
    </contour>
    <contour>
      <point x="21" y="1475" type="curve" smooth="yes"/>
      <point x="60" y="1475"/>
      <point x="103" y="1505"/>
      <point x="103" y="1547" type="curve" smooth="yes"/>
      <point x="103" y="1586"/>
      <point x="70" y="1616"/>
      <point x="32" y="1616" type="curve" smooth="yes"/>
      <point x="-9" y="1616"/>
      <point x="-38" y="1582"/>
      <point x="-38" y="1542" type="curve" smooth="yes"/>
      <point x="-38" y="1507"/>
      <point x="-16" y="1475"/>
    </contour>
  </outline>
</glyph>
<glyph name="eng" format="1">
  <advance width="827"/>
  <unicode hex="014B"/>
  <outline>
    <contour>
      <point x="185" y="641" type="line"/>
      <point x="185" y="697"/>
      <point x="176" y="752"/>
      <point x="176" y="808" type="curve" smooth="yes"/>
      <point x="176" y="1068" type="line" smooth="yes"/>
      <point x="176" y="1094"/>
      <point x="178" y="1119"/>
      <point x="181" y="1145" type="curve"/>
      <point x="237" y="1016"/>
      <point x="536" y="219"/>
      <point x="536" y="102" type="curve" smooth="yes"/>
      <point x="536" y="98"/>
      <point x="535" y="95"/>
      <point x="535" y="93" type="curve"/>
      <point x="554" y="55"/>
      <point x="545" y="-6"/>
      <point x="604" y="-6" type="curve" smooth="yes"/>
      <point x="628" y="-6"/>
      <point x="653" y="4"/>
      <point x="676" y="11" type="curve"/>
      <point x="728" y="92"/>
      <point x="749" y="951"/>
      <point x="750" y="1109" type="curve"/>
      <point x="760" y="1125" type="line"/>
      <point x="760" y="1264" type="line" smooth="yes"/>
      <point x="760" y="1302"/>
      <point x="734" y="1344"/>
      <point x="692" y="1344" type="curve" smooth="yes"/>
      <point x="649" y="1344"/>
      <point x="641" y="1315"/>
      <point x="641" y="1283" type="curve" smooth="yes"/>
      <point x="641" y="1264"/>
      <point x="644" y="1244"/>
      <point x="644" y="1228" type="curve" smooth="yes"/>
      <point x="644" y="881"/>
      <point x="636" y="534"/>
      <point x="603" y="189" type="curve"/>
      <point x="561" y="293"/>
      <point x="546" y="405"/>
      <point x="512" y="511" type="curve" smooth="yes"/>
      <point x="428" y="773"/>
      <point x="294" y="1013"/>
      <point x="220" y="1280" type="curve" smooth="yes"/>
      <point x="214" y="1300"/>
      <point x="195" y="1354"/>
      <point x="166" y="1354" type="curve" smooth="yes"/>
      <point x="161" y="1354"/>
      <point x="156" y="1352"/>
      <point x="151" y="1349" type="curve"/>
      <point x="139" y="1362" type="line"/>
      <point x="85" y="1322"/>
      <point x="76" y="1274"/>
      <point x="76" y="1211" type="curve" smooth="yes"/>
      <point x="76" y="1084"/>
      <point x="64" y="956"/>
      <point x="64" y="829" type="curve" smooth="yes"/>
      <point x="64" y="595"/>
      <point x="68" y="361"/>
      <point x="68" y="127" type="curve" smooth="yes"/>
      <point x="68" y="84"/>
      <point x="76" y="2"/>
      <point x="135" y="2" type="curve" smooth="yes"/>
      <point x="169" y="2"/>
      <point x="197" y="32"/>
      <point x="197" y="66" type="curve" smooth="yes"/>
      <point x="197" y="83"/>
      <point x="196" y="99"/>
      <point x="189" y="114" type="curve"/>
      <point x="189" y="298" type="line"/>
      <point x="172" y="341"/>
      <point x="174" y="604"/>
      <point x="174" y="646" type="curve"/>
      <point x="182" y="640" type="line"/>
    </contour>
  </outline>
</glyph>
<glyph name="caron" format="1">
  <advance width="435"/>
  <unicode hex="02C7"/>
  <outline>
    <contour>
      <point x="362" y="1289" type="line" smooth="yes"/>
      <point x="364" y="1298"/>
      <point x="369" y="1310"/>
      <point x="369" y="1320" type="curve" smooth="yes"/>
      <point x="369" y="1347"/>
      <point x="349" y="1363"/>
      <point x="326" y="1363" type="curve" smooth="yes"/>
      <point x="321" y="1363"/>
      <point x="287" y="1359"/>
      <point x="282" y="1339" type="curve"/>
      <point x="273" y="1285"/>
      <point x="252" y="1142"/>
      <point x="236" y="1051" type="curve"/>
      <point x="218" y="1102"/>
      <point x="172" y="1238"/>
      <point x="157" y="1285" type="curve" smooth="yes"/>
      <point x="147" y="1315"/>
      <point x="143" y="1356"/>
      <point x="108" y="1356" type="curve" smooth="yes"/>
      <point x="83" y="1356"/>
      <point x="59" y="1339"/>
      <point x="59" y="1317" type="curve" smooth="yes"/>
      <point x="59" y="1315"/>
      <point x="59" y="1312"/>
      <point x="60" y="1310" type="curve" smooth="yes"/>
      <point x="82" y="1248"/>
      <point x="170" y="928"/>
      <point x="244" y="928" type="curve" smooth="yes"/>
      <point x="283" y="928"/>
      <point x="296" y="960"/>
      <point x="296" y="994" type="curve" smooth="yes"/>
      <point x="296" y="1050"/>
      <point x="354" y="1240"/>
      <point x="354" y="1252" type="curve"/>
    </contour>
  </outline>
</glyph>
<glyph name="ring" format="1">
  <advance width="347"/>
  <unicode hex="02DA"/>
  <outline>
    <contour>
      <point x="57" y="1169" type="curve" smooth="yes"/>
      <point x="57" y="1115"/>
      <point x="102" y="1062"/>
      <point x="158" y="1062" type="curve" smooth="yes"/>
      <point x="226" y="1062"/>
      <point x="282" y="1105"/>
      <point x="282" y="1176" type="curve" smooth="yes"/>
      <point x="282" y="1232"/>
      <point x="231" y="1291"/>
      <point x="173" y="1291" type="curve" smooth="yes"/>
      <point x="110" y="1291"/>
      <point x="57" y="1230"/>
    </contour>
    <contour>
      <point x="147" y="1178" type="line"/>
      <point x="171" y="1205" type="line"/>
      <point x="181" y="1195"/>
      <point x="185" y="1178"/>
      <point x="185" y="1164" type="curve"/>
      <point x="153" y="1148" type="line"/>
      <point x="146" y="1179" type="line"/>
    </contour>
  </outline>
</glyph>
<glyph name="tilde" format="1">
  <advance width="606"/>
  <unicode hex="02DC"/>
  <outline>
    <contour>
      <point x="62" y="1055" type="line"/>
      <point x="62" y="1013"/>
      <point x="100" y="996"/>
      <point x="137" y="996" type="curve"/>
      <point x="173" y="1046" type="line"/>
      <point x="161" y="1094" type="line"/>
      <point x="190" y="1125" type="line"/>
      <point x="209" y="1125" type="line"/>
      <point x="214" y="1123" type="line"/>
      <point x="265" y="1064"/>
      <point x="326" y="997"/>
      <point x="411" y="997" type="curve" smooth="yes"/>
      <point x="482" y="997"/>
      <point x="543" y="1058"/>
      <point x="543" y="1129" type="curve" smooth="yes"/>
      <point x="543" y="1171"/>
      <point x="522" y="1223"/>
      <point x="473" y="1223" type="curve" smooth="yes"/>
      <point x="452" y="1223"/>
      <point x="436" y="1209"/>
      <point x="427" y="1191" type="curve"/>
      <point x="429" y="1176"/>
      <point x="440" y="1159"/>
      <point x="440" y="1146" type="curve" smooth="yes"/>
      <point x="440" y="1120"/>
      <point x="424" y="1117"/>
      <point x="406" y="1101" type="curve"/>
      <point x="401" y="1103" type="line"/>
      <point x="387" y="1100" type="line"/>
      <point x="355" y="1100"/>
      <point x="323" y="1145"/>
      <point x="313" y="1172" type="curve"/>
      <point x="218" y="1224" type="line"/>
      <point x="211" y="1224" type="line" smooth="yes"/>
      <point x="116" y="1224"/>
      <point x="63" y="1143"/>
      <point x="63" y="1055" type="curve"/>
    </contour>
  </outline>
</glyph>
<glyph name="uni0311" format="1">
  <advance width="482"/>
  <unicode hex="0311"/>
  <outline>
    <contour>
      <point x="412" y="978" type="line"/>
      <point x="375" y="1064"/>
      <point x="349" y="1142"/>
      <point x="240" y="1142" type="curve" smooth="yes"/>
      <point x="106" y="1142"/>
      <point x="67" y="1010"/>
      <point x="67" y="899" type="curve"/>
      <point x="105" y="867" type="line"/>
      <point x="176" y="867"/>
      <point x="158" y="1008"/>
      <point x="214" y="1047" type="curve"/>
      <point x="257" y="1047" type="line" smooth="yes"/>
      <point x="284" y="1047"/>
      <point x="304" y="975"/>
      <point x="304" y="953" type="curve" smooth="yes"/>
      <point x="304" y="910"/>
      <point x="311" y="876"/>
      <point x="362" y="876" type="curve" smooth="yes"/>
      <point x="390" y="876"/>
      <point x="416" y="899"/>
      <point x="416" y="928" type="curve" smooth="yes"/>
      <point x="416" y="934"/>
      <point x="409" y="954"/>
      <point x="407" y="961" type="curve"/>
      <point x="411" y="977" type="line"/>
    </contour>
  </outline>
</glyph>
<glyph name="uni0326" format="1">
  <advance width="376"/>
  <unicode hex="0326"/>
  <outline>
    <contour>
      <point x="58" y="-533" type="line"/>
      <point x="113" y="-560" type="line"/>
      <point x="119" y="-560" type="line" smooth="yes"/>
      <point x="214" y="-560"/>
      <point x="305" y="-373"/>
      <point x="305" y="-281" type="curve" smooth="yes"/>
      <point x="305" y="-276"/>
      <point x="304" y="-271"/>
      <point x="304" y="-267" type="curve"/>
      <point x="308" y="-260" type="line"/>
      <point x="291" y="-215"/>
      <point x="268" y="-174"/>
      <point x="214" y="-174" type="curve" smooth="yes"/>
      <point x="166" y="-174"/>
      <point x="113" y="-209"/>
      <point x="113" y="-261" type="curve" smooth="yes"/>
      <point x="113" y="-303"/>
      <point x="139" y="-338"/>
      <point x="172" y="-362" type="curve"/>
      <point x="162" y="-412"/>
      <point x="102" y="-454"/>
      <point x="68" y="-488" type="curve"/>
    </contour>
  </outline>
</glyph>
<glyph name="quoteleft" format="1">
  <advance width="356"/>
  <unicode hex="2018"/>
  <outline>
    <contour>
      <point x="304" y="1550" type="line"/>
      <point x="250" y="1577" type="line"/>
      <point x="244" y="1577" type="line" smooth="yes"/>
      <point x="149" y="1577"/>
      <point x="58" y="1391"/>
      <point x="58" y="1298" type="curve" smooth="yes"/>
      <point x="58" y="1294"/>
      <point x="58" y="1289"/>
      <point x="59" y="1285" type="curve"/>
      <point x="54" y="1279" type="line"/>
      <point x="71" y="1234"/>
      <point x="94" y="1192"/>
      <point x="148" y="1192" type="curve" smooth="yes"/>
      <point x="196" y="1192"/>
      <point x="249" y="1227"/>
      <point x="249" y="1279" type="curve" smooth="yes"/>
      <point x="249" y="1320"/>
      <point x="223" y="1357"/>
      <point x="191" y="1381" type="curve"/>
      <point x="201" y="1429"/>
      <point x="258" y="1476"/>
      <point x="295" y="1506" type="curve"/>
    </contour>
  </outline>
</glyph>
<glyph name="quotedblleft" format="1">
  <advance width="569"/>
  <unicode hex="201C"/>
  <outline>
    <contour>
      <point x="516" y="1551" type="line"/>
      <point x="462" y="1578" type="line"/>
      <point x="456" y="1578" type="line" smooth="yes"/>
      <point x="361" y="1578"/>
      <point x="270" y="1392"/>
      <point x="270" y="1299" type="curve" smooth="yes"/>
      <point x="270" y="1295"/>
      <point x="270" y="1290"/>
      <point x="271" y="1286" type="curve"/>
      <point x="266" y="1280" type="line"/>
      <point x="283" y="1235"/>
      <point x="306" y="1193"/>
      <point x="360" y="1193" type="curve" smooth="yes"/>
      <point x="408" y="1193"/>
      <point x="461" y="1228"/>
      <point x="461" y="1280" type="curve" smooth="yes"/>
      <point x="461" y="1321"/>
      <point x="435" y="1358"/>
      <point x="403" y="1382" type="curve"/>
      <point x="413" y="1433"/>
      <point x="471" y="1473"/>
      <point x="506" y="1507" type="curve"/>
    </contour>
    <contour>
      <point x="303" y="1550" type="line"/>
      <point x="249" y="1577" type="line"/>
      <point x="243" y="1577" type="line" smooth="yes"/>
      <point x="148" y="1577"/>
      <point x="57" y="1391"/>
      <point x="57" y="1298" type="curve" smooth="yes"/>
      <point x="57" y="1294"/>
      <point x="57" y="1289"/>
      <point x="58" y="1285" type="curve"/>
      <point x="53" y="1279" type="line"/>
      <point x="70" y="1234"/>
      <point x="93" y="1192"/>
      <point x="147" y="1192" type="curve" smooth="yes"/>
      <point x="195" y="1192"/>
      <point x="248" y="1227"/>
      <point x="248" y="1279" type="curve" smooth="yes"/>
      <point x="248" y="1320"/>
      <point x="222" y="1357"/>
      <point x="190" y="1381" type="curve"/>
      <point x="200" y="1429"/>
      <point x="257" y="1476"/>
      <point x="294" y="1506" type="curve"/>
    </contour>
  </outline>
</glyph>
<glyph name="bullet" format="1">
  <advance width="828"/>
  <unicode hex="2022"/>
  <outline>
    <contour>
      <point x="212" y="727" type="curve"/>
      <point x="212" y="814"/>
      <point x="251" y="878"/>
      <point x="281" y="920" type="curve" smooth="yes"/>
      <point x="294" y="947"/>
      <point x="378" y="1011"/>
      <point x="408" y="1011" type="curve" smooth="yes"/>
      <point x="598" y="1011"/>
      <point x="644" y="866"/>
      <point x="644" y="779" type="curve" smooth="yes"/>
      <point x="644" y="694"/>
      <point x="607" y="485"/>
      <point x="417" y="485" type="curve" smooth="yes"/>
      <point x="303" y="485"/>
      <point x="213" y="595"/>
      <point x="213" y="665" type="curve" smooth="yes"/>
      <point x="213" y="687"/>
      <point x="212" y="705"/>
    </contour>
  </outline>
</glyph>
<glyph name="ellipsis" format="1">
  <advance width="885"/>
  <unicode hex="2026"/>
  <outline>
    <contour>
      <point x="74" y="41" type="curve" smooth="yes"/>
      <point x="74" y="4"/>
      <point x="105" y="-32"/>
      <point x="143" y="-32" type="curve" smooth="yes"/>
      <point x="188" y="-32"/>
      <point x="224" y="-4"/>
      <point x="224" y="43" type="curve" smooth="yes"/>
      <point x="224" y="81"/>
      <point x="190" y="120"/>
      <point x="151" y="120" type="curve" smooth="yes"/>
      <point x="110" y="120"/>
      <point x="74" y="82"/>
    </contour>
    <contour>
      <point x="369" y="41" type="curve" smooth="yes"/>
      <point x="369" y="4"/>
      <point x="400" y="-32"/>
      <point x="438" y="-32" type="curve" smooth="yes"/>
      <point x="483" y="-32"/>
      <point x="519" y="-4"/>
      <point x="519" y="43" type="curve" smooth="yes"/>
      <point x="519" y="81"/>
      <point x="485" y="120"/>
      <point x="446" y="120" type="curve" smooth="yes"/>
      <point x="405" y="120"/>
      <point x="369" y="82"/>
    </contour>
    <contour>
      <point x="664" y="41" type="curve" smooth="yes"/>
      <point x="664" y="4"/>
      <point x="695" y="-32"/>
      <point x="733" y="-32" type="curve" smooth="yes"/>
      <point x="778" y="-32"/>
      <point x="814" y="-4"/>
      <point x="814" y="43" type="curve" smooth="yes"/>
      <point x="814" y="81"/>
      <point x="780" y="120"/>
      <point x="741" y="120" type="curve" smooth="yes"/>
      <point x="700" y="120"/>
      <point x="664" y="82"/>
    </contour>
  </outline>
</glyph>
